<svg width="82" height="20" viewBox="0 0 82 20" fill="none" xmlns="http://www.w3.org/2000/svg">
<path d="M75.44 6.19725L71.7815 2.55559L68.123 6.19725L71.7815 9.83892L75.44 6.19725ZM71.9077 0.127808H75.6923L81.8107 6.19725L75.6923 12.2667H71.9077L78.0261 6.19725L71.9077 0.127808Z" fill="white"/>
<path d="M33.5569 8.17778C33.0523 9.2 32.0431 9.83889 30.9077 9.83889C28.8262 9.83889 27.8169 8.11389 27.8169 6.26111C27.8169 4.40833 28.8892 2.68333 30.9077 2.68333C32.0431 2.68333 33.1154 3.32222 33.5569 4.34444L36.3323 3.13056C35.3862 1.21389 33.4938 0 30.9077 0C26.9969 0 24.7892 2.68333 24.7892 6.26111C24.7892 9.83889 27.06 12.5222 30.9077 12.5222C33.4938 12.5222 35.3862 11.3083 36.3323 9.45556L33.5569 8.17778ZM17.9138 2.61944C19.9954 2.61944 21.0046 4.34444 21.0046 6.19722C21.0046 8.05 19.9323 9.775 17.9138 9.775C15.8954 9.775 14.8231 8.05 14.8231 6.19722C14.8231 4.34444 15.8323 2.61944 17.9138 2.61944ZM17.9138 0C14.0031 0 11.7954 2.68333 11.7954 6.26111C11.7954 9.83889 14.0662 12.5222 17.9138 12.5222C21.7615 12.5222 24.0323 9.83889 24.0323 6.26111C24.0323 2.68333 21.7615 0 17.9138 0ZM2.96462 7.15556H6.74923C7.88461 7.15556 8.26308 7.60278 8.26308 8.625C8.26308 9.39167 7.82154 10.0306 6.18154 10.0306H2.96462V7.15556ZM2.90154 2.42778H6.24461C7.25385 2.42778 7.82154 2.68333 7.82154 3.70556C7.82154 4.6 7.19077 4.98333 6.24461 4.98333H2.90154V2.42778ZM0 12.2667H6.37077C9.46154 12.2667 11.3538 11.3083 11.3538 8.81667C11.3538 7.02778 10.0292 6.13333 8.32615 6.06944V6.00556C9.96615 5.62222 10.9123 4.79167 10.9123 3.25833C10.9123 0.958333 9.27231 0.127778 6.74923 0.127778H0V12.2667ZM52.2908 2.61944C54.3723 2.61944 55.3815 4.34444 55.3815 6.19722C55.3815 8.05 54.3723 9.775 52.2908 9.775C50.2092 9.775 49.2 8.05 49.2 6.19722C49.2 4.34444 50.2723 2.61944 52.2908 2.61944ZM52.2908 0C48.38 0 46.1723 2.68333 46.1723 6.26111C46.1723 9.83889 48.4431 12.5222 52.2908 12.5222C56.2015 12.5222 58.4092 9.83889 58.4092 6.26111C58.4092 2.68333 56.2015 0 52.2908 0ZM36.7108 2.49167H39.9277V12.2667H43.0185V2.49167H46.2354V0.127778H36.7738L36.7108 2.49167ZM65.4738 6.26111L71.5923 12.3306H67.8077L62.2569 6.83611V12.3306H59.2292V0.191667H62.32V5.68611L67.8708 0.191667H71.6554L65.4738 6.26111Z" fill="white"/>
<path d="M27.3364 19.6327H26.623V14.7736H23.9694V19.6327H23.2598V14.1821H27.3364V19.6327Z" fill="white"/>
<path d="M32.6991 14.1821V19.6327H31.9895V14.7736H30.0602L29.9642 16.9336C29.9272 17.6573 29.8533 18.2014 29.7424 18.5658C29.634 18.9301 29.4738 19.1984 29.2619 19.3706C29.05 19.5403 28.7667 19.6277 28.4119 19.6327H28.179V19.0449L28.3269 19.0374C28.556 19.02 28.7322 18.9451 28.8554 18.8128C28.9786 18.6781 29.0722 18.4647 29.1363 18.1727C29.2003 17.8807 29.2459 17.4315 29.273 16.825L29.3839 14.1821H32.6991Z" fill="white"/>
<path d="M37.027 18.2101H34.7725L34.2662 19.6327H33.5344L35.5893 14.1821H36.2102L38.2689 19.6327H37.5408L37.027 18.2101ZM34.9869 17.6187H36.8164L35.8998 15.0693L34.9869 17.6187Z" fill="white"/>
<path d="M42.2309 14.7736H40.5012V19.6327H39.7953V14.7736H38.0693V14.1821H42.2309V14.7736Z" fill="white"/>
<path d="M45.6866 14.7287H45.8011C46.2077 14.7312 46.5785 14.8273 46.9136 15.0169C47.2487 15.2066 47.5086 15.4686 47.6934 15.8031C47.8807 16.135 47.9743 16.5068 47.9743 16.9186C47.9743 17.3329 47.8807 17.7085 47.6934 18.0454C47.5062 18.3823 47.2475 18.6456 46.9173 18.8353C46.5871 19.0225 46.22 19.1185 45.8159 19.1235H45.6866V19.8573H44.9991V19.1235H44.8956C44.4842 19.1235 44.1096 19.0287 43.7721 18.839C43.437 18.6494 43.1758 18.3873 42.9885 18.0529C42.8038 17.7185 42.7114 17.3429 42.7114 16.9261C42.7114 16.5093 42.8038 16.1337 42.9885 15.7993C43.1758 15.4649 43.437 15.2029 43.7721 15.0132C44.1096 14.8235 44.4842 14.7287 44.8956 14.7287H44.9991V13.9575H45.6866V14.7287ZM44.8956 15.2939C44.4324 15.2939 44.0653 15.4387 43.7943 15.7282C43.5257 16.0152 43.3914 16.4145 43.3914 16.9261C43.3914 17.4402 43.5257 17.8408 43.7943 18.1278C44.0628 18.4123 44.4324 18.5545 44.903 18.5545H44.9991V15.2939H44.8956ZM45.6866 15.2939V18.5545H45.7901C46.2607 18.5545 46.6278 18.4085 46.8914 18.1165C47.1575 17.822 47.2906 17.4227 47.2906 16.9186C47.2906 16.4195 47.1575 16.0239 46.8914 15.7319C46.6278 15.4399 46.2557 15.2939 45.7753 15.2939H45.6866Z" fill="white"/>
<path d="M53.0082 17.0833C53.0082 17.6174 52.9195 18.0841 52.7421 18.4834C52.5647 18.8802 52.3133 19.1834 51.9881 19.3931C51.6629 19.6027 51.2834 19.7075 50.8498 19.7075C50.426 19.7075 50.0502 19.6027 49.7225 19.3931C49.3948 19.1809 49.1398 18.8802 48.9574 18.4909C48.7776 18.0991 48.6852 17.6461 48.6803 17.132V16.7389C48.6803 16.2148 48.7702 15.7519 48.9501 15.3501C49.1299 14.9483 49.3837 14.6413 49.7114 14.4292C50.0416 14.2146 50.4186 14.1073 50.8424 14.1073C51.2736 14.1073 51.653 14.2133 51.9807 14.4255C52.3109 14.6351 52.5647 14.9408 52.7421 15.3426C52.9195 15.7419 53.0082 16.2074 53.0082 16.7389V17.0833ZM52.3022 16.7314C52.3022 16.0851 52.1741 15.5897 51.9179 15.2453C51.6616 14.8984 51.3031 14.7249 50.8424 14.7249C50.3939 14.7249 50.0403 14.8984 49.7816 15.2453C49.5254 15.5897 49.3936 16.0688 49.3862 16.6828V17.0833C49.3862 17.7097 49.5155 18.2026 49.7742 18.562C50.0354 18.9189 50.3939 19.0973 50.8498 19.0973C51.308 19.0973 51.6629 18.9289 51.9142 18.592C52.1655 18.2526 52.2949 17.7671 52.3022 17.1357V16.7314Z" fill="white"/>
<path d="M54.7822 17.4989V19.6327H54.0726V14.1821H56.0573C56.6462 14.1821 57.1069 14.3344 57.4396 14.6388C57.7747 14.9433 57.9422 15.3464 57.9422 15.848C57.9422 16.3771 57.7784 16.7851 57.4507 17.0721C57.1254 17.3566 56.6585 17.4989 56.0499 17.4989H54.7822ZM54.7822 16.9111H56.0573C56.4367 16.9111 56.7275 16.8213 56.9295 16.6416C57.1316 16.4594 57.2326 16.1974 57.2326 15.8555C57.2326 15.531 57.1316 15.2715 56.9295 15.0768C56.7275 14.8822 56.4503 14.7811 56.0979 14.7736H54.7822V16.9111Z" fill="white"/>
<path d="M59.7643 14.1821L61.5236 18.6294L63.2828 14.1821H64.2031V19.6327H63.4935V17.5101L63.56 15.2191L61.7934 19.6327H61.2501L59.4871 15.2303L59.5573 17.5101V19.6327H58.8477V14.1821H59.7643Z" fill="white"/>
<path d="M68.494 18.2101H66.2395L65.7332 19.6327H65.0014L67.0563 14.1821H67.6772L69.7359 19.6327H69.0078L68.494 18.2101ZM66.4539 17.6187H68.2834L67.3668 15.0693L66.4539 17.6187Z" fill="white"/>
</svg>
