<svg width="40" height="40" viewBox="0 0 40 40" fill="none" xmlns="http://www.w3.org/2000/svg">
<g id="Icon / User">
<path id="Subtract" fill-rule="evenodd" clip-rule="evenodd" d="M37.7164 29.2893C39.1748 26.5136 40 23.3532 40 20C40 8.9543 31.0457 0 20 0C8.9543 0 0 8.9543 0 20C0 31.0457 8.9543 40 20 40C23.3532 40 26.5136 39.1748 29.2893 37.7164C28.4819 36.6945 28 35.4035 28 34C28 30.6863 30.6863 28 34 28C35.4035 28 36.6945 28.4819 37.7164 29.2893Z" fill="white"/>
<g id="person-24px 2">
<path id="Vector" d="M20 20C22.21 20 24 18.21 24 16C24 13.79 22.21 12 20 12C17.79 12 16 13.79 16 16C16 18.21 17.79 20 20 20ZM20 22C17.33 22 12 23.34 12 26V28H28V26C28 23.34 22.67 22 20 22Z" fill="#F47C20"/>
</g>
<circle id="Ellipse 18" cx="34" cy="34" r="4" fill="#27AE60"/>
</g>
</svg>
